<svg xmlns="http://www.w3.org/2000/svg" viewBox="0 0 404.87346 194.99399"><defs><style>.cls-1,.cls-5,.cls-6{fill:#ff2424;}.cls-2{fill:#991a5a;}.cls-3{fill:#434a5b;}.cls-4{font-size:41.70586px;fill:#3b4051;font-family:Outfit-ExtraBold, Outfit ExtraBold;font-weight:800;}.cls-5{letter-spacing:0.00402em;}.cls-6{letter-spacing:-0.00002em;}.cls-7{font-size:12.97516px;fill:#2c2e33;font-family:Lato-Regular, Lato Regular;letter-spacing:0.20001em;}.cls-8{letter-spacing:0.23998em;}.cls-9{letter-spacing:0.143em;}.cls-10{letter-spacing:0.19998em;}.cls-11{letter-spacing:0.20901em;}.cls-12{letter-spacing:0.16099em;}.cls-13{letter-spacing:0.20005em;}</style></defs><title>horizontal_logo</title><g id="OBJECTS"><polygon class="cls-1" points="74.618 194.994 140.821 70.315 156.884 100.385 106.697 194.994 74.618 194.994"/><path class="cls-1" d="M222.916,180.9338a66.15943,66.15943,0,0,1,106.1842-15.8719l4.6513,4.7659,14.008-26.2231-2.8393-2.5532A94.38663,94.38663,0,0,0,207.8121,152.515Z" transform="translate(-49.98961 -110.7165)"/><polygon class="cls-2" points="114.33 120.205 130.345 90.044 146.365 120.215 130.358 150.391 114.33 120.205"/><path class="cls-3" d="M281.7289,305.71049a95.13757,95.13757,0,0,1-78.3771-41.7917s-5.7515-9.6701-6.8198-11.8952l-43.00379-80.9865-71.5597,134.6734H49.98961l103.54-194.994L224.619,244.59779a66.12383,66.12383,0,0,0,105.5324,11.7466l4.65131-4.9911,14.10129,26.4002-2.7412,2.5565A94.19192,94.19192,0,0,1,281.7289,305.71049Z" transform="translate(-49.98961 -110.7165)"/></g><g id="TEXTS"><text id="AELXI_CASAS" data-name="AELXI CASAS" class="cls-4" transform="translate(179.99813 111.58751)">ALEIX <tspan class="cls-5" x="108.3501" y="0">C</tspan><tspan class="cls-6" x="132.70605" y="0">ASAS</tspan></text><text class="cls-7" transform="translate(207.29354 128.84727)">SOF<tspan class="cls-8" x="29.44043" y="0">T</tspan><tspan class="cls-9" x="39.00293" y="0">W</tspan><tspan class="cls-10" x="51.83545" y="0">ARE D</tspan><tspan class="cls-11" x="97.50732" y="0">E</tspan><tspan class="cls-10" x="106.60303" y="0">VE</tspan><tspan class="cls-12" x="125.4165" y="0">L</tspan><tspan class="cls-13" x="133.62939" y="0">OPER</tspan></text></g></svg>