<svg xmlns="http://www.w3.org/2000/svg" viewBox="0 0 298.91439 194.99399"><defs><style>.cls-1{fill:#ff2424;}.cls-2{fill:#991a5a;}.cls-3{fill:#434a5b;}</style></defs><title>small_logo</title><g id="OBJECTS"><polygon class="cls-1" points="74.618 194.994 140.821 70.315 156.884 100.385 106.697 194.994 74.618 194.994"/><path class="cls-1" d="M221.89473,180.9338a66.15942,66.15942,0,0,1,106.18419-15.8719l4.6513,4.7659,14.008-26.2231-2.8393-2.5532A94.38662,94.38662,0,0,0,206.79083,152.515Z" transform="translate(-48.96833 -110.7165)"/><polygon class="cls-2" points="114.33 120.205 130.345 90.044 146.365 120.215 130.358 150.391 114.33 120.205"/><path class="cls-3" d="M280.70763,305.71049a95.13757,95.13757,0,0,1-78.3771-41.7917s-5.7515-9.6701-6.8198-11.8952l-43.0038-80.9865-71.5597,134.6734H48.96833l103.54-194.994,71.0894,133.88129a66.12382,66.12382,0,0,0,105.53239,11.7466l4.65131-4.9911,14.10129,26.4002-2.7412,2.5565A94.19189,94.19189,0,0,1,280.70763,305.71049Z" transform="translate(-48.96833 -110.7165)"/></g></svg>