<svg xmlns="http://www.w3.org/2000/svg" viewBox="0 0 500 500"><defs><style>.cls-1{fill:#fff;}.cls-2,.cls-6,.cls-7{fill:#ff2424;}.cls-3{fill:#991a5a;}.cls-4{fill:#434a5b;}.cls-5{font-size:41.71px;fill:#3b4051;font-family:Outfit-ExtraBold, Outfit ExtraBold;font-weight:800;}.cls-6{letter-spacing:0em;}.cls-7{letter-spacing:0em;}.cls-8{font-size:12.98px;fill:#2c2e33;font-family:Lato-Regular, Lato Regular;letter-spacing:0.2em;}.cls-9{letter-spacing:0.24em;}.cls-10{letter-spacing:0.14em;}.cls-11{letter-spacing:0.2em;}.cls-12{letter-spacing:0.21em;}.cls-13{letter-spacing:0.16em;}.cls-14{letter-spacing:0.2em;}</style></defs><title>vertical_logo</title><g id="BACKGROUND"><rect class="cls-1" width="500" height="500"/></g><g id="OBJECTS"><polygon class="cls-2" points="175.16 305.71 241.36 181.03 257.43 211.1 207.24 305.71 175.16 305.71"/><path class="cls-2" d="M273.47,180.93a66.15,66.15,0,0,1,106.18-15.87l4.65,4.77,14-26.23-2.84-2.55a94.39,94.39,0,0,0-137.1,11.46Z" transform="translate(0 0)"/><polygon class="cls-3" points="214.87 230.92 230.89 200.76 246.91 230.93 230.9 261.11 214.87 230.92"/><path class="cls-4" d="M332.28,305.71a95.14,95.14,0,0,1-78.38-41.79s-5.75-9.67-6.81-11.9l-43-81L132.52,305.71h-32l103.54-195L275.17,244.6A66.12,66.12,0,0,0,380.7,256.34l4.66-5,14.1,26.4-2.74,2.56A94.2,94.2,0,0,1,332.28,305.71Z" transform="translate(0 0)"/></g><g id="TEXTS"><text id="AELXI_CASAS" data-name="AELXI CASAS" class="cls-5" transform="translate(137.56 351.68)">ALEIX <tspan class="cls-6" x="108.35" y="0">C</tspan><tspan class="cls-7" x="132.71" y="0">ASAS</tspan></text><text class="cls-8" transform="translate(164.86 368.94)">SOF<tspan class="cls-9" x="29.44" y="0">T</tspan><tspan class="cls-10" x="39" y="0">W</tspan><tspan class="cls-11" x="51.84" y="0">ARE D</tspan><tspan class="cls-12" x="97.51" y="0">E</tspan><tspan class="cls-11" x="106.6" y="0">VE</tspan><tspan class="cls-13" x="125.42" y="0">L</tspan><tspan class="cls-14" x="133.63" y="0">OPER</tspan></text></g></svg>